<?xml version="1.0" encoding="UTF-8" standalone="no"?>
<!DOCTYPE svg PUBLIC "-//W3C//DTD SVG 1.1//EN"
 "http://www.w3.org/Graphics/SVG/1.1/DTD/svg11.dtd">
<!-- Generated by graphviz version 9.0.0 (20230911.1827)
 -->
<!-- Pages: 1 -->
<svg width="2714pt" height="332pt"
 viewBox="0.00 0.00 2713.57 332.00" xmlns="http://www.w3.org/2000/svg" xmlns:xlink="http://www.w3.org/1999/xlink">
<g id="graph0" class="graph" transform="scale(1 1) rotate(0) translate(4 328)">
<polygon fill="white" stroke="none" points="-4,4 -4,-328 2709.57,-328 2709.57,4 -4,4"/>
<!-- [root] azurerm_cognitive_account.TextAnalytics (expand) -->
<g id="node1" class="node">
<title>[root] azurerm_cognitive_account.TextAnalytics (expand)</title>
<polygon fill="none" stroke="black" points="1232.38,-180 985.38,-180 985.38,-144 1232.38,-144 1232.38,-180"/>
<text text-anchor="middle" x="1108.88" y="-156.95" font-family="Times,serif" font-size="14.00">azurerm_cognitive_account.TextAnalytics</text>
</g>
<!-- [root] azurerm_resource_group.rg (expand) -->
<g id="node2" class="node">
<title>[root] azurerm_resource_group.rg (expand)</title>
<polygon fill="none" stroke="black" points="1192.25,-108 1025.5,-108 1025.5,-72 1192.25,-72 1192.25,-108"/>
<text text-anchor="middle" x="1108.88" y="-84.95" font-family="Times,serif" font-size="14.00">azurerm_resource_group.rg</text>
</g>
<!-- [root] azurerm_cognitive_account.TextAnalytics (expand)&#45;&gt;[root] azurerm_resource_group.rg (expand) -->
<g id="edge1" class="edge">
<title>[root] azurerm_cognitive_account.TextAnalytics (expand)&#45;&gt;[root] azurerm_resource_group.rg (expand)</title>
<path fill="none" stroke="black" d="M1108.88,-143.7C1108.88,-136.41 1108.88,-127.73 1108.88,-119.54"/>
<polygon fill="black" stroke="black" points="1112.38,-119.62 1108.88,-109.62 1105.38,-119.62 1112.38,-119.62"/>
</g>
<!-- [root] provider[&quot;registry.terraform.io/hashicorp/azurerm&quot;] -->
<g id="node3" class="node">
<title>[root] provider[&quot;registry.terraform.io/hashicorp/azurerm&quot;]</title>
<polygon fill="none" stroke="black" points="750.88,-36 463.28,-18 750.87,0 1038.47,-18 750.88,-36"/>
<text text-anchor="middle" x="750.88" y="-12.95" font-family="Times,serif" font-size="14.00">provider[&quot;registry.terraform.io/hashicorp/azurerm&quot;]</text>
</g>
<!-- [root] azurerm_resource_group.rg (expand)&#45;&gt;[root] provider[&quot;registry.terraform.io/hashicorp/azurerm&quot;] -->
<g id="edge2" class="edge">
<title>[root] azurerm_resource_group.rg (expand)&#45;&gt;[root] provider[&quot;registry.terraform.io/hashicorp/azurerm&quot;]</title>
<path fill="none" stroke="black" d="M1025.39,-72.68C966.29,-61.12 887.53,-45.72 829.54,-34.38"/>
<polygon fill="black" stroke="black" points="830.57,-31.02 820.08,-32.53 829.22,-37.89 830.57,-31.02"/>
</g>
<!-- [root] var.environment -->
<g id="node7" class="node">
<title>[root] var.environment</title>
<polygon fill="none" stroke="black" points="1155.5,-36 1056.25,-36 1056.25,0 1161.5,0 1161.5,-30 1155.5,-36"/>
<polyline fill="none" stroke="black" points="1155.5,-36 1155.5,-30"/>
<polyline fill="none" stroke="black" points="1161.5,-30 1155.5,-30"/>
<text text-anchor="middle" x="1108.88" y="-12.95" font-family="Times,serif" font-size="14.00">var.environment</text>
</g>
<!-- [root] azurerm_resource_group.rg (expand)&#45;&gt;[root] var.environment -->
<g id="edge3" class="edge">
<title>[root] azurerm_resource_group.rg (expand)&#45;&gt;[root] var.environment</title>
<path fill="none" stroke="black" d="M1108.88,-71.7C1108.88,-64.41 1108.88,-55.73 1108.88,-47.54"/>
<polygon fill="black" stroke="black" points="1112.38,-47.62 1108.88,-37.62 1105.38,-47.62 1112.38,-47.62"/>
</g>
<!-- [root] var.project -->
<g id="node9" class="node">
<title>[root] var.project</title>
<polygon fill="none" stroke="black" points="1247.75,-36 1180,-36 1180,0 1253.75,0 1253.75,-30 1247.75,-36"/>
<polyline fill="none" stroke="black" points="1247.75,-36 1247.75,-30"/>
<polyline fill="none" stroke="black" points="1253.75,-30 1247.75,-30"/>
<text text-anchor="middle" x="1216.88" y="-12.95" font-family="Times,serif" font-size="14.00">var.project</text>
</g>
<!-- [root] azurerm_resource_group.rg (expand)&#45;&gt;[root] var.project -->
<g id="edge4" class="edge">
<title>[root] azurerm_resource_group.rg (expand)&#45;&gt;[root] var.project</title>
<path fill="none" stroke="black" d="M1135.85,-71.52C1149.48,-62.68 1166.21,-51.84 1180.92,-42.3"/>
<polygon fill="black" stroke="black" points="1182.49,-45.46 1188.97,-37.08 1178.68,-39.59 1182.49,-45.46"/>
</g>
<!-- [root] provider[&quot;registry.terraform.io/hashicorp/random&quot;] -->
<g id="node4" class="node">
<title>[root] provider[&quot;registry.terraform.io/hashicorp/random&quot;]</title>
<polygon fill="none" stroke="black" points="2420.88,-108 2136.18,-90 2420.88,-72 2705.57,-90 2420.88,-108"/>
<text text-anchor="middle" x="2420.88" y="-84.95" font-family="Times,serif" font-size="14.00">provider[&quot;registry.terraform.io/hashicorp/random&quot;]</text>
</g>
<!-- [root] random_id.id (expand) -->
<g id="node5" class="node">
<title>[root] random_id.id (expand)</title>
<polygon fill="none" stroke="black" points="2408.62,-180 2319.12,-180 2319.12,-144 2408.62,-144 2408.62,-180"/>
<text text-anchor="middle" x="2363.88" y="-156.95" font-family="Times,serif" font-size="14.00">random_id.id</text>
</g>
<!-- [root] random_id.id (expand)&#45;&gt;[root] provider[&quot;registry.terraform.io/hashicorp/random&quot;] -->
<g id="edge11" class="edge">
<title>[root] random_id.id (expand)&#45;&gt;[root] provider[&quot;registry.terraform.io/hashicorp/random&quot;]</title>
<path fill="none" stroke="black" d="M2377.96,-143.7C2384.69,-135.44 2392.87,-125.39 2400.27,-116.3"/>
<polygon fill="black" stroke="black" points="2402.78,-118.76 2406.38,-108.8 2397.36,-114.34 2402.78,-118.76"/>
</g>
<!-- [root] random_pet.pet (expand) -->
<g id="node6" class="node">
<title>[root] random_pet.pet (expand)</title>
<polygon fill="none" stroke="black" points="2528.62,-180 2427.12,-180 2427.12,-144 2528.62,-144 2528.62,-180"/>
<text text-anchor="middle" x="2477.88" y="-156.95" font-family="Times,serif" font-size="14.00">random_pet.pet</text>
</g>
<!-- [root] random_pet.pet (expand)&#45;&gt;[root] provider[&quot;registry.terraform.io/hashicorp/random&quot;] -->
<g id="edge12" class="edge">
<title>[root] random_pet.pet (expand)&#45;&gt;[root] provider[&quot;registry.terraform.io/hashicorp/random&quot;]</title>
<path fill="none" stroke="black" d="M2463.79,-143.7C2457.06,-135.44 2448.88,-125.39 2441.48,-116.3"/>
<polygon fill="black" stroke="black" points="2444.39,-114.34 2435.37,-108.8 2438.97,-118.76 2444.39,-114.34"/>
</g>
<!-- [root] var.location -->
<g id="node8" class="node">
<title>[root] var.location</title>
<polygon fill="none" stroke="black" points="73.75,-252 0,-252 0,-216 79.75,-216 79.75,-246 73.75,-252"/>
<polyline fill="none" stroke="black" points="73.75,-252 73.75,-246"/>
<polyline fill="none" stroke="black" points="79.75,-246 73.75,-246"/>
<text text-anchor="middle" x="39.88" y="-228.95" font-family="Times,serif" font-size="14.00">var.location</text>
</g>
<!-- [root] output.azurerm_cognitive_account_endpoint (expand) -->
<g id="node10" class="node">
<title>[root] output.azurerm_cognitive_account_endpoint (expand)</title>
<ellipse fill="none" stroke="black" cx="332.88" cy="-234" rx="235.6" ry="18"/>
<text text-anchor="middle" x="332.88" y="-228.95" font-family="Times,serif" font-size="14.00">[root] output.azurerm_cognitive_account_endpoint (expand)</text>
</g>
<!-- [root] output.azurerm_cognitive_account_endpoint (expand)&#45;&gt;[root] azurerm_cognitive_account.TextAnalytics (expand) -->
<g id="edge5" class="edge">
<title>[root] output.azurerm_cognitive_account_endpoint (expand)&#45;&gt;[root] azurerm_cognitive_account.TextAnalytics (expand)</title>
<path fill="none" stroke="black" d="M481.12,-219.63C623.28,-206.8 836.08,-187.61 973.7,-175.19"/>
<polygon fill="black" stroke="black" points="973.98,-178.68 983.62,-174.3 973.35,-171.71 973.98,-178.68"/>
</g>
<!-- [root] output.azurerm_cognitive_account_key_secondary (expand) -->
<g id="node11" class="node">
<title>[root] output.azurerm_cognitive_account_key_secondary (expand)</title>
<ellipse fill="none" stroke="black" cx="844.88" cy="-234" rx="258.63" ry="18"/>
<text text-anchor="middle" x="844.88" y="-228.95" font-family="Times,serif" font-size="14.00">[root] output.azurerm_cognitive_account_key_secondary (expand)</text>
</g>
<!-- [root] output.azurerm_cognitive_account_key_secondary (expand)&#45;&gt;[root] azurerm_cognitive_account.TextAnalytics (expand) -->
<g id="edge6" class="edge">
<title>[root] output.azurerm_cognitive_account_key_secondary (expand)&#45;&gt;[root] azurerm_cognitive_account.TextAnalytics (expand)</title>
<path fill="none" stroke="black" d="M908.45,-216.14C945.6,-206.29 992.76,-193.79 1031.99,-183.39"/>
<polygon fill="black" stroke="black" points="1032.87,-186.77 1041.64,-180.83 1031.07,-180.01 1032.87,-186.77"/>
</g>
<!-- [root] output.azurerm_cognitive_account_primary_key (expand) -->
<g id="node12" class="node">
<title>[root] output.azurerm_cognitive_account_primary_key (expand)</title>
<ellipse fill="none" stroke="black" cx="1372.88" cy="-234" rx="250.96" ry="18"/>
<text text-anchor="middle" x="1372.88" y="-228.95" font-family="Times,serif" font-size="14.00">[root] output.azurerm_cognitive_account_primary_key (expand)</text>
</g>
<!-- [root] output.azurerm_cognitive_account_primary_key (expand)&#45;&gt;[root] azurerm_cognitive_account.TextAnalytics (expand) -->
<g id="edge7" class="edge">
<title>[root] output.azurerm_cognitive_account_primary_key (expand)&#45;&gt;[root] azurerm_cognitive_account.TextAnalytics (expand)</title>
<path fill="none" stroke="black" d="M1309.3,-216.14C1272.15,-206.29 1224.99,-193.79 1185.76,-183.39"/>
<polygon fill="black" stroke="black" points="1186.68,-180.01 1176.11,-180.83 1184.88,-186.77 1186.68,-180.01"/>
</g>
<!-- [root] provider[&quot;registry.terraform.io/hashicorp/azurerm&quot;] (close) -->
<g id="node13" class="node">
<title>[root] provider[&quot;registry.terraform.io/hashicorp/azurerm&quot;] (close)</title>
<ellipse fill="none" stroke="black" cx="1895.88" cy="-234" rx="254.54" ry="18"/>
<text text-anchor="middle" x="1895.88" y="-228.95" font-family="Times,serif" font-size="14.00">[root] provider[&quot;registry.terraform.io/hashicorp/azurerm&quot;] (close)</text>
</g>
<!-- [root] provider[&quot;registry.terraform.io/hashicorp/azurerm&quot;] (close)&#45;&gt;[root] azurerm_cognitive_account.TextAnalytics (expand) -->
<g id="edge8" class="edge">
<title>[root] provider[&quot;registry.terraform.io/hashicorp/azurerm&quot;] (close)&#45;&gt;[root] azurerm_cognitive_account.TextAnalytics (expand)</title>
<path fill="none" stroke="black" d="M1741.8,-219.3C1596.93,-206.41 1382.22,-187.31 1243.91,-175.01"/>
<polygon fill="black" stroke="black" points="1244.62,-171.56 1234.35,-174.16 1244,-178.53 1244.62,-171.56"/>
</g>
<!-- [root] provider[&quot;registry.terraform.io/hashicorp/random&quot;] (close) -->
<g id="node14" class="node">
<title>[root] provider[&quot;registry.terraform.io/hashicorp/random&quot;] (close)</title>
<ellipse fill="none" stroke="black" cx="2420.88" cy="-234" rx="252.49" ry="18"/>
<text text-anchor="middle" x="2420.88" y="-228.95" font-family="Times,serif" font-size="14.00">[root] provider[&quot;registry.terraform.io/hashicorp/random&quot;] (close)</text>
</g>
<!-- [root] provider[&quot;registry.terraform.io/hashicorp/random&quot;] (close)&#45;&gt;[root] random_id.id (expand) -->
<g id="edge9" class="edge">
<title>[root] provider[&quot;registry.terraform.io/hashicorp/random&quot;] (close)&#45;&gt;[root] random_id.id (expand)</title>
<path fill="none" stroke="black" d="M2406.79,-215.7C2400.23,-207.64 2392.29,-197.89 2385.03,-188.98"/>
<polygon fill="black" stroke="black" points="2387.79,-186.82 2378.76,-181.28 2382.36,-191.24 2387.79,-186.82"/>
</g>
<!-- [root] provider[&quot;registry.terraform.io/hashicorp/random&quot;] (close)&#45;&gt;[root] random_pet.pet (expand) -->
<g id="edge10" class="edge">
<title>[root] provider[&quot;registry.terraform.io/hashicorp/random&quot;] (close)&#45;&gt;[root] random_pet.pet (expand)</title>
<path fill="none" stroke="black" d="M2434.96,-215.7C2441.52,-207.64 2449.46,-197.89 2456.72,-188.98"/>
<polygon fill="black" stroke="black" points="2459.39,-191.24 2462.99,-181.28 2453.96,-186.82 2459.39,-191.24"/>
</g>
<!-- [root] root -->
<g id="node15" class="node">
<title>[root] root</title>
<ellipse fill="none" stroke="black" cx="1108.88" cy="-306" rx="49.3" ry="18"/>
<text text-anchor="middle" x="1108.88" y="-300.95" font-family="Times,serif" font-size="14.00">[root] root</text>
</g>
<!-- [root] root&#45;&gt;[root] var.location -->
<g id="edge18" class="edge">
<title>[root] root&#45;&gt;[root] var.location</title>
<path fill="none" stroke="black" d="M1059.39,-304.32C885.02,-301.62 298.91,-290.04 91.3,-252.33"/>
<polygon fill="black" stroke="black" points="92.2,-248.93 81.72,-250.5 90.89,-255.81 92.2,-248.93"/>
</g>
<!-- [root] root&#45;&gt;[root] output.azurerm_cognitive_account_endpoint (expand) -->
<g id="edge13" class="edge">
<title>[root] root&#45;&gt;[root] output.azurerm_cognitive_account_endpoint (expand)</title>
<path fill="none" stroke="black" d="M1061.21,-300.7C950.4,-290.7 671.3,-265.53 492.55,-249.4"/>
<polygon fill="black" stroke="black" points="492.97,-245.93 482.7,-248.52 492.34,-252.9 492.97,-245.93"/>
</g>
<!-- [root] root&#45;&gt;[root] output.azurerm_cognitive_account_key_secondary (expand) -->
<g id="edge14" class="edge">
<title>[root] root&#45;&gt;[root] output.azurerm_cognitive_account_key_secondary (expand)</title>
<path fill="none" stroke="black" d="M1069.92,-294.67C1030.45,-284.21 968.4,-267.75 919.44,-254.77"/>
<polygon fill="black" stroke="black" points="920.6,-251.46 910.03,-252.28 918.8,-258.22 920.6,-251.46"/>
</g>
<!-- [root] root&#45;&gt;[root] output.azurerm_cognitive_account_primary_key (expand) -->
<g id="edge15" class="edge">
<title>[root] root&#45;&gt;[root] output.azurerm_cognitive_account_primary_key (expand)</title>
<path fill="none" stroke="black" d="M1147.83,-294.67C1187.3,-284.21 1249.35,-267.75 1298.31,-254.77"/>
<polygon fill="black" stroke="black" points="1298.95,-258.22 1307.72,-252.28 1297.15,-251.46 1298.95,-258.22"/>
</g>
<!-- [root] root&#45;&gt;[root] provider[&quot;registry.terraform.io/hashicorp/azurerm&quot;] (close) -->
<g id="edge16" class="edge">
<title>[root] root&#45;&gt;[root] provider[&quot;registry.terraform.io/hashicorp/azurerm&quot;] (close)</title>
<path fill="none" stroke="black" d="M1156.63,-300.75C1267.86,-290.86 1548.57,-265.89 1730.3,-249.73"/>
<polygon fill="black" stroke="black" points="1730.42,-253.23 1740.07,-248.86 1729.8,-246.26 1730.42,-253.23"/>
</g>
<!-- [root] root&#45;&gt;[root] provider[&quot;registry.terraform.io/hashicorp/random&quot;] (close) -->
<g id="edge17" class="edge">
<title>[root] root&#45;&gt;[root] provider[&quot;registry.terraform.io/hashicorp/random&quot;] (close)</title>
<path fill="none" stroke="black" d="M1157.87,-302.78C1307.84,-295.95 1773.89,-274.3 2159.88,-252 2182.67,-250.68 2206.58,-249.23 2230.29,-247.74"/>
<polygon fill="black" stroke="black" points="2230.26,-251.25 2240.02,-247.12 2229.82,-244.26 2230.26,-251.25"/>
</g>
</g>
</svg>
