<?xml version="1.0" encoding="UTF-8" standalone="no"?>
<!DOCTYPE svg PUBLIC "-//W3C//DTD SVG 1.1//EN"
 "http://www.w3.org/Graphics/SVG/1.1/DTD/svg11.dtd">
<!-- Generated by graphviz version 9.0.0 (20230911.1827)
 -->
<!-- Pages: 1 -->
<svg width="2115pt" height="620pt"
 viewBox="0.00 0.00 2114.76 620.00" xmlns="http://www.w3.org/2000/svg" xmlns:xlink="http://www.w3.org/1999/xlink">
<g id="graph0" class="graph" transform="scale(1 1) rotate(0) translate(4 616)">
<polygon fill="white" stroke="none" points="-4,4 -4,-616 2110.76,-616 2110.76,4 -4,4"/>
<!-- [root] azurerm_application_insights.insights (expand) -->
<g id="node1" class="node">
<title>[root] azurerm_application_insights.insights (expand)</title>
<polygon fill="none" stroke="black" points="615.29,-252 393.04,-252 393.04,-216 615.29,-216 615.29,-252"/>
<text text-anchor="middle" x="504.16" y="-228.95" font-family="Times,serif" font-size="14.00">azurerm_application_insights.insights</text>
</g>
<!-- [root] azurerm_resource_group.rg (expand) -->
<g id="node5" class="node">
<title>[root] azurerm_resource_group.rg (expand)</title>
<polygon fill="none" stroke="black" points="1361.54,-108 1194.79,-108 1194.79,-72 1361.54,-72 1361.54,-108"/>
<text text-anchor="middle" x="1278.16" y="-84.95" font-family="Times,serif" font-size="14.00">azurerm_resource_group.rg</text>
</g>
<!-- [root] azurerm_application_insights.insights (expand)&#45;&gt;[root] azurerm_resource_group.rg (expand) -->
<g id="edge1" class="edge">
<title>[root] azurerm_application_insights.insights (expand)&#45;&gt;[root] azurerm_resource_group.rg (expand)</title>
<path fill="none" stroke="black" d="M502.29,-215.58C501.16,-195.08 502.89,-161.62 523.16,-144 571.92,-101.64 991.1,-93.09 1182.98,-91.39"/>
<polygon fill="black" stroke="black" points="1182.97,-94.9 1192.94,-91.31 1182.91,-87.9 1182.97,-94.9"/>
</g>
<!-- [root] azurerm_cognitive_account.text&#45;analytics (expand) -->
<g id="node2" class="node">
<title>[root] azurerm_cognitive_account.text&#45;analytics (expand)</title>
<polygon fill="none" stroke="black" points="1612.79,-324 1369.54,-324 1369.54,-288 1612.79,-288 1612.79,-324"/>
<text text-anchor="middle" x="1491.16" y="-300.95" font-family="Times,serif" font-size="14.00">azurerm_cognitive_account.text&#45;analytics</text>
</g>
<!-- [root] azurerm_cognitive_account.text&#45;analytics (expand)&#45;&gt;[root] azurerm_resource_group.rg (expand) -->
<g id="edge2" class="edge">
<title>[root] azurerm_cognitive_account.text&#45;analytics (expand)&#45;&gt;[root] azurerm_resource_group.rg (expand)</title>
<path fill="none" stroke="black" d="M1475.56,-287.61C1448.4,-257.56 1390.35,-194.32 1338.16,-144 1328.33,-134.52 1317.21,-124.52 1307.24,-115.78"/>
<polygon fill="black" stroke="black" points="1309.82,-113.39 1299.98,-109.47 1305.23,-118.67 1309.82,-113.39"/>
</g>
<!-- [root] azurerm_function_app_function.example (expand) -->
<g id="node3" class="node">
<title>[root] azurerm_function_app_function.example (expand)</title>
<polygon fill="none" stroke="black" points="773.66,-468 532.66,-468 532.66,-432 773.66,-432 773.66,-468"/>
<text text-anchor="middle" x="653.16" y="-444.95" font-family="Times,serif" font-size="14.00">azurerm_function_app_function.example</text>
</g>
<!-- [root] azurerm_linux_function_app.function&#45;app (expand) -->
<g id="node4" class="node">
<title>[root] azurerm_linux_function_app.function&#45;app (expand)</title>
<polygon fill="none" stroke="black" points="1230.29,-396 984.04,-396 984.04,-360 1230.29,-360 1230.29,-396"/>
<text text-anchor="middle" x="1107.16" y="-372.95" font-family="Times,serif" font-size="14.00">azurerm_linux_function_app.function&#45;app</text>
</g>
<!-- [root] azurerm_function_app_function.example (expand)&#45;&gt;[root] azurerm_linux_function_app.function&#45;app (expand) -->
<g id="edge3" class="edge">
<title>[root] azurerm_function_app_function.example (expand)&#45;&gt;[root] azurerm_linux_function_app.function&#45;app (expand)</title>
<path fill="none" stroke="black" d="M766.55,-431.52C832.36,-421.37 915.33,-408.58 982.9,-398.16"/>
<polygon fill="black" stroke="black" points="983.19,-401.66 992.54,-396.67 982.12,-394.74 983.19,-401.66"/>
</g>
<!-- [root] azurerm_linux_function_app.function&#45;app (expand)&#45;&gt;[root] azurerm_cognitive_account.text&#45;analytics (expand) -->
<g id="edge4" class="edge">
<title>[root] azurerm_linux_function_app.function&#45;app (expand)&#45;&gt;[root] azurerm_cognitive_account.text&#45;analytics (expand)</title>
<path fill="none" stroke="black" d="M1203.07,-359.52C1258.16,-349.48 1327.46,-336.84 1384.29,-326.48"/>
<polygon fill="black" stroke="black" points="1384.78,-329.95 1393.99,-324.71 1383.52,-323.06 1384.78,-329.95"/>
</g>
<!-- [root] azurerm_service_plan.asp (expand) -->
<g id="node6" class="node">
<title>[root] azurerm_service_plan.asp (expand)</title>
<polygon fill="none" stroke="black" points="1351.04,-324 1193.29,-324 1193.29,-288 1351.04,-288 1351.04,-324"/>
<text text-anchor="middle" x="1272.16" y="-300.95" font-family="Times,serif" font-size="14.00">azurerm_service_plan.asp</text>
</g>
<!-- [root] azurerm_linux_function_app.function&#45;app (expand)&#45;&gt;[root] azurerm_service_plan.asp (expand) -->
<g id="edge5" class="edge">
<title>[root] azurerm_linux_function_app.function&#45;app (expand)&#45;&gt;[root] azurerm_service_plan.asp (expand)</title>
<path fill="none" stroke="black" d="M1148.37,-359.52C1170.31,-350.21 1197.49,-338.68 1220.79,-328.79"/>
<polygon fill="black" stroke="black" points="1221.96,-332.1 1229.8,-324.97 1219.22,-325.66 1221.96,-332.1"/>
</g>
<!-- [root] azurerm_storage_blob.storage_blob_function (expand) -->
<g id="node8" class="node">
<title>[root] azurerm_storage_blob.storage_blob_function (expand)</title>
<polygon fill="none" stroke="black" points="1175.54,-324 912.79,-324 912.79,-288 1175.54,-288 1175.54,-324"/>
<text text-anchor="middle" x="1044.16" y="-300.95" font-family="Times,serif" font-size="14.00">azurerm_storage_blob.storage_blob_function</text>
</g>
<!-- [root] azurerm_linux_function_app.function&#45;app (expand)&#45;&gt;[root] azurerm_storage_blob.storage_blob_function (expand) -->
<g id="edge6" class="edge">
<title>[root] azurerm_linux_function_app.function&#45;app (expand)&#45;&gt;[root] azurerm_storage_blob.storage_blob_function (expand)</title>
<path fill="none" stroke="black" d="M1091.59,-359.7C1084.19,-351.47 1075.2,-341.48 1067.04,-332.42"/>
<polygon fill="black" stroke="black" points="1069.86,-330.32 1060.57,-325.23 1064.66,-335 1069.86,-330.32"/>
</g>
<!-- [root] provider[&quot;registry.terraform.io/hashicorp/azurerm&quot;] -->
<g id="node13" class="node">
<title>[root] provider[&quot;registry.terraform.io/hashicorp/azurerm&quot;]</title>
<polygon fill="none" stroke="black" points="920.16,-36 632.57,-18 920.16,0 1207.75,-18 920.16,-36"/>
<text text-anchor="middle" x="920.16" y="-12.95" font-family="Times,serif" font-size="14.00">provider[&quot;registry.terraform.io/hashicorp/azurerm&quot;]</text>
</g>
<!-- [root] azurerm_resource_group.rg (expand)&#45;&gt;[root] provider[&quot;registry.terraform.io/hashicorp/azurerm&quot;] -->
<g id="edge7" class="edge">
<title>[root] azurerm_resource_group.rg (expand)&#45;&gt;[root] provider[&quot;registry.terraform.io/hashicorp/azurerm&quot;]</title>
<path fill="none" stroke="black" d="M1194.68,-72.68C1135.57,-61.12 1056.82,-45.72 998.82,-34.38"/>
<polygon fill="black" stroke="black" points="999.85,-31.02 989.37,-32.53 998.51,-37.89 999.85,-31.02"/>
</g>
<!-- [root] var.environment -->
<g id="node15" class="node">
<title>[root] var.environment</title>
<polygon fill="none" stroke="black" points="1324.79,-36 1225.54,-36 1225.54,0 1330.79,0 1330.79,-30 1324.79,-36"/>
<polyline fill="none" stroke="black" points="1324.79,-36 1324.79,-30"/>
<polyline fill="none" stroke="black" points="1330.79,-30 1324.79,-30"/>
<text text-anchor="middle" x="1278.16" y="-12.95" font-family="Times,serif" font-size="14.00">var.environment</text>
</g>
<!-- [root] azurerm_resource_group.rg (expand)&#45;&gt;[root] var.environment -->
<g id="edge8" class="edge">
<title>[root] azurerm_resource_group.rg (expand)&#45;&gt;[root] var.environment</title>
<path fill="none" stroke="black" d="M1278.16,-71.7C1278.16,-64.41 1278.16,-55.73 1278.16,-47.54"/>
<polygon fill="black" stroke="black" points="1281.66,-47.62 1278.16,-37.62 1274.66,-47.62 1281.66,-47.62"/>
</g>
<!-- [root] var.project -->
<g id="node17" class="node">
<title>[root] var.project</title>
<polygon fill="none" stroke="black" points="1417.04,-36 1349.29,-36 1349.29,0 1423.04,0 1423.04,-30 1417.04,-36"/>
<polyline fill="none" stroke="black" points="1417.04,-36 1417.04,-30"/>
<polyline fill="none" stroke="black" points="1423.04,-30 1417.04,-30"/>
<text text-anchor="middle" x="1386.16" y="-12.95" font-family="Times,serif" font-size="14.00">var.project</text>
</g>
<!-- [root] azurerm_resource_group.rg (expand)&#45;&gt;[root] var.project -->
<g id="edge9" class="edge">
<title>[root] azurerm_resource_group.rg (expand)&#45;&gt;[root] var.project</title>
<path fill="none" stroke="black" d="M1305.14,-71.52C1318.77,-62.68 1335.5,-51.84 1350.21,-42.3"/>
<polygon fill="black" stroke="black" points="1351.77,-45.46 1358.26,-37.08 1347.97,-39.59 1351.77,-45.46"/>
</g>
<!-- [root] azurerm_service_plan.asp (expand)&#45;&gt;[root] azurerm_resource_group.rg (expand) -->
<g id="edge10" class="edge">
<title>[root] azurerm_service_plan.asp (expand)&#45;&gt;[root] azurerm_resource_group.rg (expand)</title>
<path fill="none" stroke="black" d="M1281.66,-287.87C1294.09,-264.38 1315.22,-220.48 1323.16,-180 1326.24,-164.3 1328.68,-159.02 1323.16,-144 1319.53,-134.12 1313.16,-124.82 1306.32,-116.86"/>
<polygon fill="black" stroke="black" points="1308.94,-114.53 1299.57,-109.58 1303.81,-119.29 1308.94,-114.53"/>
</g>
<!-- [root] azurerm_storage_account.storage (expand) -->
<g id="node7" class="node">
<title>[root] azurerm_storage_account.storage (expand)</title>
<polygon fill="none" stroke="black" points="1314.29,-180 1116.04,-180 1116.04,-144 1314.29,-144 1314.29,-180"/>
<text text-anchor="middle" x="1215.16" y="-156.95" font-family="Times,serif" font-size="14.00">azurerm_storage_account.storage</text>
</g>
<!-- [root] azurerm_storage_account.storage (expand)&#45;&gt;[root] azurerm_resource_group.rg (expand) -->
<g id="edge11" class="edge">
<title>[root] azurerm_storage_account.storage (expand)&#45;&gt;[root] azurerm_resource_group.rg (expand)</title>
<path fill="none" stroke="black" d="M1230.73,-143.7C1238.13,-135.47 1247.13,-125.48 1255.28,-116.42"/>
<polygon fill="black" stroke="black" points="1257.67,-119 1261.75,-109.23 1252.46,-114.32 1257.67,-119"/>
</g>
<!-- [root] azurerm_storage_container.function&#45;container (expand) -->
<g id="node9" class="node">
<title>[root] azurerm_storage_container.function&#45;container (expand)</title>
<polygon fill="none" stroke="black" points="1246.41,-252 979.91,-252 979.91,-216 1246.41,-216 1246.41,-252"/>
<text text-anchor="middle" x="1113.16" y="-228.95" font-family="Times,serif" font-size="14.00">azurerm_storage_container.function&#45;container</text>
</g>
<!-- [root] azurerm_storage_blob.storage_blob_function (expand)&#45;&gt;[root] azurerm_storage_container.function&#45;container (expand) -->
<g id="edge12" class="edge">
<title>[root] azurerm_storage_blob.storage_blob_function (expand)&#45;&gt;[root] azurerm_storage_container.function&#45;container (expand)</title>
<path fill="none" stroke="black" d="M1061.22,-287.7C1069.41,-279.39 1079.37,-269.28 1088.38,-260.14"/>
<polygon fill="black" stroke="black" points="1090.71,-262.76 1095.24,-253.18 1085.73,-257.85 1090.71,-262.76"/>
</g>
<!-- [root] data.archive_file.function (expand) -->
<g id="node10" class="node">
<title>[root] data.archive_file.function (expand)</title>
<polygon fill="none" stroke="black" points="926.91,-252 771.41,-252 771.41,-216 926.91,-216 926.91,-252"/>
<text text-anchor="middle" x="849.16" y="-228.95" font-family="Times,serif" font-size="14.00">data.archive_file.function</text>
</g>
<!-- [root] azurerm_storage_blob.storage_blob_function (expand)&#45;&gt;[root] data.archive_file.function (expand) -->
<g id="edge13" class="edge">
<title>[root] azurerm_storage_blob.storage_blob_function (expand)&#45;&gt;[root] data.archive_file.function (expand)</title>
<path fill="none" stroke="black" d="M995.46,-287.52C969.07,-278.04 936.25,-266.26 908.39,-256.26"/>
<polygon fill="black" stroke="black" points="909.6,-252.98 899.01,-252.89 907.24,-259.57 909.6,-252.98"/>
</g>
<!-- [root] azurerm_storage_container.function&#45;container (expand)&#45;&gt;[root] azurerm_storage_account.storage (expand) -->
<g id="edge14" class="edge">
<title>[root] azurerm_storage_container.function&#45;container (expand)&#45;&gt;[root] azurerm_storage_account.storage (expand)</title>
<path fill="none" stroke="black" d="M1138.64,-215.52C1151.39,-206.76 1167.01,-196.04 1180.81,-186.58"/>
<polygon fill="black" stroke="black" points="1182.5,-189.66 1188.76,-181.12 1178.54,-183.89 1182.5,-189.66"/>
</g>
<!-- [root] null_resource.pip (expand) -->
<g id="node11" class="node">
<title>[root] null_resource.pip (expand)</title>
<polygon fill="none" stroke="black" points="448.41,-180 337.91,-180 337.91,-144 448.41,-144 448.41,-180"/>
<text text-anchor="middle" x="393.16" y="-156.95" font-family="Times,serif" font-size="14.00">null_resource.pip</text>
</g>
<!-- [root] data.archive_file.function (expand)&#45;&gt;[root] null_resource.pip (expand) -->
<g id="edge15" class="edge">
<title>[root] data.archive_file.function (expand)&#45;&gt;[root] null_resource.pip (expand)</title>
<path fill="none" stroke="black" d="M771.03,-221.01C683.4,-207.55 542.75,-185.96 460.01,-173.26"/>
<polygon fill="black" stroke="black" points="460.65,-169.82 450.23,-171.76 459.59,-176.74 460.65,-169.82"/>
</g>
<!-- [root] provider[&quot;registry.terraform.io/hashicorp/archive&quot;] -->
<g id="node12" class="node">
<title>[root] provider[&quot;registry.terraform.io/hashicorp/archive&quot;]</title>
<polygon fill="none" stroke="black" points="815.16,-180 532.64,-162 815.16,-144 1097.69,-162 815.16,-180"/>
<text text-anchor="middle" x="815.16" y="-156.95" font-family="Times,serif" font-size="14.00">provider[&quot;registry.terraform.io/hashicorp/archive&quot;]</text>
</g>
<!-- [root] data.archive_file.function (expand)&#45;&gt;[root] provider[&quot;registry.terraform.io/hashicorp/archive&quot;] -->
<g id="edge16" class="edge">
<title>[root] data.archive_file.function (expand)&#45;&gt;[root] provider[&quot;registry.terraform.io/hashicorp/archive&quot;]</title>
<path fill="none" stroke="black" d="M840.76,-215.7C836.95,-207.87 832.37,-198.44 828.14,-189.73"/>
<polygon fill="black" stroke="black" points="831.41,-188.45 823.9,-180.98 825.12,-191.51 831.41,-188.45"/>
</g>
<!-- [root] provider[&quot;registry.terraform.io/hashicorp/null&quot;] -->
<g id="node14" class="node">
<title>[root] provider[&quot;registry.terraform.io/hashicorp/null&quot;]</title>
<polygon fill="none" stroke="black" points="393.16,-108 128.73,-90 393.16,-72 657.59,-90 393.16,-108"/>
<text text-anchor="middle" x="393.16" y="-84.95" font-family="Times,serif" font-size="14.00">provider[&quot;registry.terraform.io/hashicorp/null&quot;]</text>
</g>
<!-- [root] null_resource.pip (expand)&#45;&gt;[root] provider[&quot;registry.terraform.io/hashicorp/null&quot;] -->
<g id="edge17" class="edge">
<title>[root] null_resource.pip (expand)&#45;&gt;[root] provider[&quot;registry.terraform.io/hashicorp/null&quot;]</title>
<path fill="none" stroke="black" d="M393.16,-143.7C393.16,-136.41 393.16,-127.73 393.16,-119.54"/>
<polygon fill="black" stroke="black" points="396.66,-119.62 393.16,-109.62 389.66,-119.62 396.66,-119.62"/>
</g>
<!-- [root] var.location -->
<g id="node16" class="node">
<title>[root] var.location</title>
<polygon fill="none" stroke="black" points="381.04,-540 307.29,-540 307.29,-504 387.04,-504 387.04,-534 381.04,-540"/>
<polyline fill="none" stroke="black" points="381.04,-540 381.04,-534"/>
<polyline fill="none" stroke="black" points="387.04,-534 381.04,-534"/>
<text text-anchor="middle" x="347.16" y="-516.95" font-family="Times,serif" font-size="14.00">var.location</text>
</g>
<!-- [root] output.azurerm_cognitive_account_endpoint (expand) -->
<g id="node18" class="node">
<title>[root] output.azurerm_cognitive_account_endpoint (expand)</title>
<ellipse fill="none" stroke="black" cx="1871.16" cy="-450" rx="235.6" ry="18"/>
<text text-anchor="middle" x="1871.16" y="-444.95" font-family="Times,serif" font-size="14.00">[root] output.azurerm_cognitive_account_endpoint (expand)</text>
</g>
<!-- [root] output.azurerm_cognitive_account_endpoint (expand)&#45;&gt;[root] azurerm_cognitive_account.text&#45;analytics (expand) -->
<g id="edge18" class="edge">
<title>[root] output.azurerm_cognitive_account_endpoint (expand)&#45;&gt;[root] azurerm_cognitive_account.text&#45;analytics (expand)</title>
<path fill="none" stroke="black" d="M1874.6,-431.66C1877.48,-411.56 1878.58,-378.79 1860.16,-360 1827.76,-326.95 1716.37,-314.29 1624.38,-309.55"/>
<polygon fill="black" stroke="black" points="1624.64,-306.06 1614.48,-309.07 1624.3,-313.05 1624.64,-306.06"/>
</g>
<!-- [root] output.azurerm_cognitive_account_key_secondary (expand) -->
<g id="node19" class="node">
<title>[root] output.azurerm_cognitive_account_key_secondary (expand)</title>
<ellipse fill="none" stroke="black" cx="1313.16" cy="-522" rx="258.63" ry="18"/>
<text text-anchor="middle" x="1313.16" y="-516.95" font-family="Times,serif" font-size="14.00">[root] output.azurerm_cognitive_account_key_secondary (expand)</text>
</g>
<!-- [root] output.azurerm_cognitive_account_key_secondary (expand)&#45;&gt;[root] azurerm_cognitive_account.text&#45;analytics (expand) -->
<g id="edge19" class="edge">
<title>[root] output.azurerm_cognitive_account_key_secondary (expand)&#45;&gt;[root] azurerm_cognitive_account.text&#45;analytics (expand)</title>
<path fill="none" stroke="black" d="M1310.81,-503.65C1307.45,-471.38 1305.12,-401.63 1340.16,-360 1351.57,-346.45 1366.66,-336.36 1382.9,-328.85"/>
<polygon fill="black" stroke="black" points="1383.91,-332.22 1391.74,-325.09 1381.17,-325.78 1383.91,-332.22"/>
</g>
<!-- [root] output.azurerm_cognitive_account_primary_key (expand) -->
<g id="node20" class="node">
<title>[root] output.azurerm_cognitive_account_primary_key (expand)</title>
<ellipse fill="none" stroke="black" cx="1600.16" cy="-378" rx="250.96" ry="18"/>
<text text-anchor="middle" x="1600.16" y="-372.95" font-family="Times,serif" font-size="14.00">[root] output.azurerm_cognitive_account_primary_key (expand)</text>
</g>
<!-- [root] output.azurerm_cognitive_account_primary_key (expand)&#45;&gt;[root] azurerm_cognitive_account.text&#45;analytics (expand) -->
<g id="edge20" class="edge">
<title>[root] output.azurerm_cognitive_account_primary_key (expand)&#45;&gt;[root] azurerm_cognitive_account.text&#45;analytics (expand)</title>
<path fill="none" stroke="black" d="M1573.22,-359.7C1559.46,-350.86 1542.53,-339.99 1527.62,-330.41"/>
<polygon fill="black" stroke="black" points="1529.75,-327.62 1519.45,-325.16 1525.97,-333.51 1529.75,-327.62"/>
</g>
<!-- [root] provider[&quot;registry.terraform.io/hashicorp/archive&quot;] (close) -->
<g id="node21" class="node">
<title>[root] provider[&quot;registry.terraform.io/hashicorp/archive&quot;] (close)</title>
<ellipse fill="none" stroke="black" cx="1042.16" cy="-450" rx="250.96" ry="18"/>
<text text-anchor="middle" x="1042.16" y="-444.95" font-family="Times,serif" font-size="14.00">[root] provider[&quot;registry.terraform.io/hashicorp/archive&quot;] (close)</text>
</g>
<!-- [root] provider[&quot;registry.terraform.io/hashicorp/archive&quot;] (close)&#45;&gt;[root] data.archive_file.function (expand) -->
<g id="edge21" class="edge">
<title>[root] provider[&quot;registry.terraform.io/hashicorp/archive&quot;] (close)&#45;&gt;[root] data.archive_file.function (expand)</title>
<path fill="none" stroke="black" d="M1018.95,-431.77C1005.79,-421.71 989.19,-408.57 975.16,-396 941.7,-366 931.93,-359.34 904.16,-324 888.87,-304.54 874.28,-280.58 863.97,-262.43"/>
<polygon fill="black" stroke="black" points="867.09,-260.83 859.16,-253.81 860.97,-264.25 867.09,-260.83"/>
</g>
<!-- [root] provider[&quot;registry.terraform.io/hashicorp/azurerm&quot;] (close) -->
<g id="node22" class="node">
<title>[root] provider[&quot;registry.terraform.io/hashicorp/azurerm&quot;] (close)</title>
<ellipse fill="none" stroke="black" cx="698.16" cy="-522" rx="254.54" ry="18"/>
<text text-anchor="middle" x="698.16" y="-516.95" font-family="Times,serif" font-size="14.00">[root] provider[&quot;registry.terraform.io/hashicorp/azurerm&quot;] (close)</text>
</g>
<!-- [root] provider[&quot;registry.terraform.io/hashicorp/azurerm&quot;] (close)&#45;&gt;[root] azurerm_application_insights.insights (expand) -->
<g id="edge22" class="edge">
<title>[root] provider[&quot;registry.terraform.io/hashicorp/azurerm&quot;] (close)&#45;&gt;[root] azurerm_application_insights.insights (expand)</title>
<path fill="none" stroke="black" d="M579.88,-505.61C558.49,-497.6 538.46,-485.67 524.16,-468 476.25,-408.79 487.82,-311.24 497.42,-263.33"/>
<polygon fill="black" stroke="black" points="500.8,-264.27 499.47,-253.76 493.95,-262.8 500.8,-264.27"/>
</g>
<!-- [root] provider[&quot;registry.terraform.io/hashicorp/azurerm&quot;] (close)&#45;&gt;[root] azurerm_function_app_function.example (expand) -->
<g id="edge23" class="edge">
<title>[root] provider[&quot;registry.terraform.io/hashicorp/azurerm&quot;] (close)&#45;&gt;[root] azurerm_function_app_function.example (expand)</title>
<path fill="none" stroke="black" d="M687.04,-503.7C681.97,-495.81 675.86,-486.3 670.23,-477.55"/>
<polygon fill="black" stroke="black" points="673.33,-475.9 664.98,-469.38 667.44,-479.68 673.33,-475.9"/>
</g>
<!-- [root] provider[&quot;registry.terraform.io/hashicorp/null&quot;] (close) -->
<g id="node23" class="node">
<title>[root] provider[&quot;registry.terraform.io/hashicorp/null&quot;] (close)</title>
<ellipse fill="none" stroke="black" cx="238.16" cy="-378" rx="238.16" ry="18"/>
<text text-anchor="middle" x="238.16" y="-372.95" font-family="Times,serif" font-size="14.00">[root] provider[&quot;registry.terraform.io/hashicorp/null&quot;] (close)</text>
</g>
<!-- [root] provider[&quot;registry.terraform.io/hashicorp/null&quot;] (close)&#45;&gt;[root] null_resource.pip (expand) -->
<g id="edge24" class="edge">
<title>[root] provider[&quot;registry.terraform.io/hashicorp/null&quot;] (close)&#45;&gt;[root] null_resource.pip (expand)</title>
<path fill="none" stroke="black" d="M250.58,-359.85C277.57,-322.6 341.69,-234.07 373.94,-189.54"/>
<polygon fill="black" stroke="black" points="376.76,-191.61 379.79,-181.46 371.09,-187.5 376.76,-191.61"/>
</g>
<!-- [root] root -->
<g id="node24" class="node">
<title>[root] root</title>
<ellipse fill="none" stroke="black" cx="1026.16" cy="-594" rx="49.3" ry="18"/>
<text text-anchor="middle" x="1026.16" y="-588.95" font-family="Times,serif" font-size="14.00">[root] root</text>
</g>
<!-- [root] root&#45;&gt;[root] var.location -->
<g id="edge31" class="edge">
<title>[root] root&#45;&gt;[root] var.location</title>
<path fill="none" stroke="black" d="M976.63,-592.49C870.24,-590.59 612.43,-581.68 401.16,-540 400.17,-539.8 399.17,-539.6 398.17,-539.38"/>
<polygon fill="black" stroke="black" points="399.32,-536.06 388.78,-537.07 397.65,-542.86 399.32,-536.06"/>
</g>
<!-- [root] root&#45;&gt;[root] output.azurerm_cognitive_account_endpoint (expand) -->
<g id="edge25" class="edge">
<title>[root] root&#45;&gt;[root] output.azurerm_cognitive_account_endpoint (expand)</title>
<path fill="none" stroke="black" d="M1075.55,-592.58C1177.42,-590.85 1417.75,-582.2 1614.16,-540 1688.08,-524.12 1770.06,-493.29 1821.11,-472.42"/>
<polygon fill="black" stroke="black" points="1822.21,-475.75 1830.12,-468.71 1819.54,-469.28 1822.21,-475.75"/>
</g>
<!-- [root] root&#45;&gt;[root] output.azurerm_cognitive_account_key_secondary (expand) -->
<g id="edge26" class="edge">
<title>[root] root&#45;&gt;[root] output.azurerm_cognitive_account_key_secondary (expand)</title>
<path fill="none" stroke="black" d="M1066.37,-583.19C1109.45,-572.69 1178.96,-555.73 1233.24,-542.49"/>
<polygon fill="black" stroke="black" points="1233.88,-545.94 1242.76,-540.17 1232.22,-539.14 1233.88,-545.94"/>
</g>
<!-- [root] root&#45;&gt;[root] output.azurerm_cognitive_account_primary_key (expand) -->
<g id="edge27" class="edge">
<title>[root] root&#45;&gt;[root] output.azurerm_cognitive_account_primary_key (expand)</title>
<path fill="none" stroke="black" d="M1075.44,-591.77C1204.58,-588.06 1545.35,-575.02 1581.16,-540 1616.14,-505.79 1612.38,-443.79 1606.35,-407.53"/>
<polygon fill="black" stroke="black" points="1609.81,-406.98 1604.55,-397.78 1602.93,-408.25 1609.81,-406.98"/>
</g>
<!-- [root] root&#45;&gt;[root] provider[&quot;registry.terraform.io/hashicorp/archive&quot;] (close) -->
<g id="edge28" class="edge">
<title>[root] root&#45;&gt;[root] provider[&quot;registry.terraform.io/hashicorp/archive&quot;] (close)</title>
<path fill="none" stroke="black" d="M1028.12,-575.59C1030.82,-551.61 1035.72,-508.14 1038.96,-479.42"/>
<polygon fill="black" stroke="black" points="1042.42,-479.94 1040.06,-469.61 1035.47,-479.16 1042.42,-479.94"/>
</g>
<!-- [root] root&#45;&gt;[root] provider[&quot;registry.terraform.io/hashicorp/azurerm&quot;] (close) -->
<g id="edge29" class="edge">
<title>[root] root&#45;&gt;[root] provider[&quot;registry.terraform.io/hashicorp/azurerm&quot;] (close)</title>
<path fill="none" stroke="black" d="M984.29,-584.06C934.74,-573.49 850.88,-555.59 786.71,-541.9"/>
<polygon fill="black" stroke="black" points="787.78,-538.55 777.27,-539.88 786.32,-545.39 787.78,-538.55"/>
</g>
<!-- [root] root&#45;&gt;[root] provider[&quot;registry.terraform.io/hashicorp/null&quot;] (close) -->
<g id="edge30" class="edge">
<title>[root] root&#45;&gt;[root] provider[&quot;registry.terraform.io/hashicorp/null&quot;] (close)</title>
<path fill="none" stroke="black" d="M976.52,-592.71C852.2,-591.32 530.57,-583.5 434.16,-540 412.96,-530.43 413.75,-519.23 396.16,-504 353.93,-467.42 302.89,-427.82 270.47,-403.22"/>
<polygon fill="black" stroke="black" points="272.74,-400.54 262.65,-397.3 268.51,-406.12 272.74,-400.54"/>
</g>
</g>
</svg>
